{"title":"Kung Fu Panda 3 2016 BRRip x264 AAC-SSN","uid":14879796,"size":1038567416,"categoryP":"video","categoryS":"movies","magnet":"?xt=urn:btih:1e8ef4fa0f7c2934aa2793d6858cfd2883872b20&amp;dn=Kung+Fu+Panda+3+2016+BRRip+x264+AAC-SSN&amp;tr=udp%3A%2F%2Ftracker.leechers-paradise.org%3A6969&amp;tr=udp%3A%2F%2Fzer0day.ch%3A1337&amp;tr=udp%3A%2F%2Fopen.demonii.com%3A1337&amp;tr=udp%3A%2F%2Ftracker.coppersurfer.tk%3A6969&amp;tr=udp%3A%2F%2Fexodus.desync.com%3A6969","seeders":1,"leechers":0,"uploader":"somespirit","files":2,"time":1465645113,"description":"IMDB:  http://www.imdb.com/title/tt2267968/                   \r\n\r\n Source: Kung.Fu.Panda.3.2016.1080p.BluRay.DTS-ES.x264-HDMaNiAcS\r\n\r\n\r\n\r\n General\r\n Complete name                            : Kung Fu Panda 3 2016 BRRip x264 AAC-SSN.mkv\r\n Format                                   : Matroska\r\n Format version                           : Version 4 / Version 2\r\n File size                                : 990 MiB\r\n Duration                                 : 1h 34mn\r\n Overall bit rate                         : 1 459 Kbps\r\n Encoded date                             : UTC 2016-06-11 08:51:17\r\n Writing application                      : mkvmerge v8.6.1 ('Flying') 64bit\r\n Writing library                          : libebml v1.3.3 + libmatroska v1.4.4\r\n\r\n Video\r\n ID                                       : 1\r\n Format                                   : AVC\r\n Format/Info                              : Advanced Video Codec\r\n Format profile                           :   \r\n Format settings, CABAC                   : Yes\r\n Format settings, ReFrames                : 5 frames\r\n Codec ID                                 : V_MPEG4/ISO/AVC\r\n Duration                                 : 1h 34mn\r\n Bit rate                                 : 1 130 Kbps\r\n Width                                    : 900 pixels\r\n Height                                   : 382 pixels\r\n Display aspect ratio                     : 2.35:1\r\n Frame rate mode                          : Constant\r\n Frame rate                               : 23.976 (24000/1001) fps\r\n Color space                              : YUV\r\n Chroma subsampling                       : 4:2:0\r\n Bit depth                                : 8 bits\r\n Scan type                                : Progressive\r\n Bits/(Pixel*Frame)                       : 0.165\r\n Stream size                              : 766 MiB (77%)\r\n Writing library                          : x264 core 148 r2692 64f4e24\r\n Language                                 : English\r\n Default                                  : Yes\r\n Forced                                   : No\r\n\r\n Audio\r\n ID                                       : 2\r\n Format                                   : AAC\r\n Format/Info                              : Advanced Audio Codec\r\n Format profile                           : LC\r\n Codec ID                                 : A_AAC\r\n Duration                                 : 1h 34mn\r\n Bit rate                                 : 328 Kbps\r\n Channel(s)                               : 6 channels\r\n Channel positions                        : Front: L C R, Side: L R, LFE\r\n Sampling rate                            : 32.0 KHz\r\n Frame rate                               : 31.250 fps (1024 spf)\r\n Compression mode                         : Lossy\r\n Stream size                              : 223 MiB (23%)\r\n Language                                 : English\r\n Default                                  : Yes\r\n Forced                                   : No\r\n\r\n \nhttp://lookpic.com/O/i2/1754/DHlrix3o.png\r\n \nhttp://lookpic.com/O/i2/984/kgXaWnC5.png\r\n \nhttp://lookpic.com/O/i2/1452/t3BSdfxT.png","torrent":{"xt":"urn:btih:1e8ef4fa0f7c2934aa2793d6858cfd2883872b20","amp;dn":"Kung+Fu+Panda+3+2016+BRRip+x264+AAC-SSN","amp;tr":["udp%3A%2F%2Ftracker.leechers-paradise.org%3A6969","udp%3A%2F%2Fzer0day.ch%3A1337","udp%3A%2F%2Fopen.demonii.com%3A1337","udp%3A%2F%2Ftracker.coppersurfer.tk%3A6969","udp%3A%2F%2Fexodus.desync.com%3A6969"],"infoHash":"1e8ef4fa0f7c2934aa2793d6858cfd2883872b20","infoHashBuffer":{"type":"Buffer","data":[30,142,244,250,15,124,41,52,170,39,147,214,133,140,253,40,131,135,43,32]},"announce":[],"urlList":[]}}